<svg width="24" height="24" viewBox="0 0 24 24" fill="none" xmlns="http://www.w3.org/2000/svg">
<rect width="24" height="24" rx="5.33333" fill="#FFF0D9"/>
<path d="M14.6647 7.3334L16.6647 9.3334M11.998 14.0001L17.588 8.39007C17.8506 8.12751 17.9981 7.77139 17.9981 7.40007C17.9981 7.02875 17.8506 6.67264 17.588 6.41007C17.3255 6.14751 16.9694 6 16.598 6C16.2267 6 15.8706 6.14751 15.608 6.41007L9.99805 12.0001V14.0001H11.998Z" stroke="#F15929" stroke-width="1.33333" stroke-linecap="round" stroke-linejoin="round"/>
<path d="M9.99903 8.71338C8.83306 8.88423 7.77485 9.48975 7.03679 10.4084C6.29872 11.3271 5.93542 12.4909 6.0198 13.6663C6.10418 14.8417 6.62999 15.9417 7.49171 16.7455C8.35343 17.5493 9.48728 17.9975 10.6657 18C11.7878 17.9999 12.8723 17.5956 13.7206 16.8611C14.5689 16.1267 15.1243 15.1112 15.285 14.0007" stroke="#F15929" stroke-width="1.33333" stroke-linecap="round" stroke-linejoin="round"/>
</svg>
